<svg width="188" height="122" viewBox="0 0 188 122" fill="none" xmlns="http://www.w3.org/2000/svg">
<path d="M5 119H22.3864L46.7273 69.1979C50.5453 69.1294 58.6727 69.0339 60.6364 69.1979C62.6 69.3618 64.4544 71.7257 65.1364 72.8869L89.8864 118.59H107.068L75.5682 60.1802C74.4947 58.2439 73.1959 56.7785 71.9375 55.7238C70.0778 54.165 67.577 53.8269 65.1519 53.8269H54.0909L70.6591 20.8304L102.159 76.9859C105.636 83.3392 110.273 84.2955 112.591 84.159C117.449 84.4697 120.658 82.2891 122.57 79.9002C124.43 77.5757 124.659 74.4507 124.659 71.4712V18.371H144.909C162.582 20.3385 168.773 35.8598 169.659 43.3746V76.9859C168.514 96.0049 152.955 102.946 145.318 104.039C138.295 104.107 123.807 104.039 122 104.039C119.955 104.039 119.614 104.654 119.545 105.064V118.59H145.727C174.691 115.475 183.977 91.0588 185 79.2403L184.182 38.2509C183.691 32.1845 179.477 24.9293 177.432 22.0601C168.595 8.12367 152.068 3.54652 144.909 3H109.523V47.0419C109.523 47.4612 109.449 47.8895 109.2 48.2269C108.381 49.3414 107.047 49.4947 105.855 49.3C104.6 49.0946 103.678 48.099 103.08 46.9747L79.6591 3H62.4773L5 119Z" fill="#9333EA" stroke="#9333EA" stroke-width="5"/>
</svg>
