<svg width="512" height="512" viewBox="0 0 512 512" fill="none" xmlns="http://www.w3.org/2000/svg">
<path d="M256 512C397.385 512 512 397.385 512 256C512 114.615 397.385 0 256 0C114.615 0 0 114.615 0 256C0 397.385 114.615 512 256 512Z" fill="url(#paint0_linear_255_5)"/>
<path d="M194.15 406C188.556 405.915 183.15 403.966 178.79 400.46C161.97 387.56 170.49 370.52 173.7 364.11C185.89 339.72 198.15 314.84 210.01 290.79L214.83 281.01H210.6C195.3 280.96 180.85 280.92 166.32 281.14H165.54C142.31 281.14 139.14 265.79 138.72 261.04C137.98 252.63 141.85 240.14 149.6 233.8C186.6 203.5 224.6 173.15 261.31 143.8C273.837 133.8 286.363 123.783 298.89 113.75C313.89 101.75 325.89 105.91 333.25 111.53C344.44 120.05 346.36 131.91 338.95 146.77C326.28 172.18 313.5 198.08 301.14 223.12L297.24 231.02H301.12C316.12 231.02 330.26 231.11 344.48 230.87C368.05 230.48 372.65 243.33 373.29 251.02C374.09 260.59 368.9 272.86 361.48 278.95C325.98 308.07 289.55 337.21 254.32 365.38C241.15 375.91 227.54 386.79 214.17 397.52C210.67 400.33 205.25 404.22 198.72 405.52C197.216 405.833 195.685 405.993 194.15 406ZM192.6 261.77H244.68L238.53 275.33C237.77 276.99 237.1 278.51 236.47 279.93C235.17 282.85 234.05 285.38 232.79 287.93L227.23 299.21C215.35 323.29 203.08 348.21 190.86 372.62C186.22 381.9 187.73 383.05 190.47 385.15C192.77 386.92 194.76 388.44 202.16 382.5C215.54 371.76 229.16 360.87 242.33 350.34C277.51 322.2 313.9 293.1 349.33 264.06C351.88 261.98 354.46 255.85 354.19 252.56C354.1 251.46 353.99 251.41 353.29 251.09C352.14 250.55 349.74 249.93 344.83 250.01C330.43 250.25 316.18 250.21 301.09 250.16H267.43L273.56 236.61C274.31 234.95 274.98 233.44 275.56 232.02C276.86 229.09 277.98 226.55 279.26 224.02L283.89 214.63C296.25 189.57 309.04 163.63 321.73 138.22C325.81 130.03 324.04 128.69 321.59 126.82C319.48 125.22 317.31 123.56 310.85 128.73C298.33 138.77 285.797 148.797 273.25 158.81C236.57 188.12 198.64 218.43 161.72 248.67C159.82 250.22 157.49 255.9 157.8 259.36C157.89 260.36 158.08 260.51 158.65 260.81C159.22 261.11 161.43 262.01 165.99 261.95C174.87 261.8 183.66 261.77 192.6 261.77Z" fill="white"/>
<defs>
<linearGradient id="paint0_linear_255_5" x1="256" y1="-1.21" x2="256" y2="499.81" gradientUnits="userSpaceOnUse">
<stop stop-color="#4DDCFF"/>
<stop offset="1" stop-color="#2492FF"/>
</linearGradient>
</defs>
</svg>
